<svg xmlns="http://www.w3.org/2000/svg">
    <symbol id="facebook">
        <path d="M12.001 2.002c-5.522 0-9.999 4.477-9.999 9.999 0 4.99 3.656 9.126 8.437 9.879v-6.988h-2.54v-2.891h2.54V9.798c0-2.508 1.493-3.891 3.776-3.891 1.094 0 2.24.195 2.24.195v2.459h-1.264c-1.24 0-1.628.772-1.628 1.563v1.875h2.771l-.443 2.891h-2.328v6.988C18.344 21.129 22 16.992 22 12.001c0-5.522-4.477-9.999-9.999-9.999z"></path>
    </symbol>
    <symbol id="twitter">
        <path d="M19.633 7.997c.013.175.013.349.013.523 0 5.325-4.053 11.461-11.46 11.461-2.282 0-4.402-.661-6.186-1.809.324.037.636.05.973.05a8.07 8.07 0 0 0 5.001-1.721 4.036 4.036 0 0 1-3.767-2.793c.249.037.499.062.761.062.361 0 .724-.05 1.061-.137a4.027 4.027 0 0 1-3.23-3.953v-.05c.537.299 1.16.486 1.82.511a4.022 4.022 0 0 1-1.796-3.354c0-.748.199-1.434.548-2.032a11.457 11.457 0 0 0 8.306 4.215c-.062-.3-.1-.611-.1-.923a4.026 4.026 0 0 1 4.028-4.028c1.16 0 2.207.486 2.943 1.272a7.957 7.957 0 0 0 2.556-.973 4.02 4.02 0 0 1-1.771 2.22 8.073 8.073 0 0 0 2.319-.624 8.645 8.645 0 0 1-2.019 2.083z"></path>
    </symbol>

    <symbol id="instagram">
        <path d="M20.947 8.305a6.53 6.53 0 0 0-.419-2.216 4.61 4.61 0 0 0-2.633-2.633 6.606 6.606 0 0 0-2.186-.42c-.962-.043-1.267-.055-3.709-.055s-2.755 0-3.71.055a6.606 6.606 0 0 0-2.185.42 4.607 4.607 0 0 0-2.633 2.633 6.554 6.554 0 0 0-.419 2.185c-.043.963-.056 1.268-.056 3.71s0 2.754.056 3.71c.015.748.156 1.486.419 2.187a4.61 4.61 0 0 0 2.634 2.632 6.584 6.584 0 0 0 2.185.45c.963.043 1.268.056 3.71.056s2.755 0 3.71-.056a6.59 6.59 0 0 0 2.186-.419 4.615 4.615 0 0 0 2.633-2.633c.263-.7.404-1.438.419-2.187.043-.962.056-1.267.056-3.71-.002-2.442-.002-2.752-.058-3.709zm-8.953 8.297c-2.554 0-4.623-2.069-4.623-4.623s2.069-4.623 4.623-4.623a4.623 4.623 0 0 1 0 9.246zm4.807-8.339a1.077 1.077 0 0 1-1.078-1.078 1.077 1.077 0 1 1 2.155 0c0 .596-.482 1.078-1.077 1.078z"></path>
        <circle cx="11.994" cy="11.979" r="3.003"></circle>
    </symbol>

    <symbol id="apple-store">
        <path d="M19.665 16.811a10.316 10.316 0 0 1-1.021 1.837c-.537.767-.978 1.297-1.316 1.592-.525.482-1.089.73-1.692.744-.432 0-.954-.123-1.562-.373-.61-.249-1.17-.371-1.683-.371-.537 0-1.113.122-1.73.371-.616.25-1.114.381-1.495.393-.577.025-1.154-.229-1.729-.764-.367-.32-.826-.87-1.377-1.648-.59-.829-1.075-1.794-1.455-2.891-.407-1.187-.611-2.335-.611-3.447 0-1.273.275-2.372.826-3.292a4.857 4.857 0 0 1 1.73-1.751 4.65 4.65 0 0 1 2.34-.662c.46 0 1.063.142 1.81.422s1.227.422 1.436.422c.158 0 .689-.167 1.593-.498.853-.307 1.573-.434 2.163-.384 1.6.129 2.801.759 3.6 1.895-1.43.867-2.137 2.08-2.123 3.637.012 1.213.453 2.222 1.317 3.023a4.33 4.33 0 0 0 1.315.863c-.106.307-.218.6-.336.882zM15.998 2.38c0 .95-.348 1.838-1.039 2.659-.836.976-1.846 1.541-2.941 1.452a2.955 2.955 0 0 1-.021-.36c0-.913.396-1.889 1.103-2.688.352-.404.8-.741 1.343-1.009.542-.264 1.054-.41 1.536-.435.013.128.019.255.019.381z"></path>
    </symbol>

    <symbol id="play-store">
        <path d="m12.954 11.616 2.957-2.957L6.36 3.291c-.633-.342-1.226-.39-1.746-.016l8.34 8.341zm3.461 3.462 3.074-1.729c.6-.336.929-.812.929-1.34 0-.527-.329-1.004-.928-1.34l-2.783-1.563-3.133 3.132 2.841 2.84zM4.1 4.002c-.064.197-.1.417-.1.658v14.705c0 .381.084.709.236.97l8.097-8.098L4.1 4.002zm8.854 8.855L4.902 20.91c.154.059.32.09.495.09.312 0 .637-.092.968-.276l9.255-5.197-2.666-2.67z"></path>
    </symbol>

    <symbol id="gear">
       <path d="M12 16c2.206 0 4-1.794 4-4s-1.794-4-4-4-4 1.794-4 4 1.794 4 4 4zm0-6c1.084 0 2 .916 2 2s-.916 2-2 2-2-.916-2-2 .916-2 2-2z"></path><path d="m2.845 16.136 1 1.73c.531.917 1.809 1.261 2.73.73l.529-.306A8.1 8.1 0 0 0 9 19.402V20c0 1.103.897 2 2 2h2c1.103 0 2-.897 2-2v-.598a8.132 8.132 0 0 0 1.896-1.111l.529.306c.923.53 2.198.188 2.731-.731l.999-1.729a2.001 2.001 0 0 0-.731-2.732l-.505-.292a7.718 7.718 0 0 0 0-2.224l.505-.292a2.002 2.002 0 0 0 .731-2.732l-.999-1.729c-.531-.92-1.808-1.265-2.731-.732l-.529.306A8.1 8.1 0 0 0 15 4.598V4c0-1.103-.897-2-2-2h-2c-1.103 0-2 .897-2 2v.598a8.132 8.132 0 0 0-1.896 1.111l-.529-.306c-.924-.531-2.2-.187-2.731.732l-.999 1.729a2.001 2.001 0 0 0 .731 2.732l.505.292a7.683 7.683 0 0 0 0 2.223l-.505.292a2.003 2.003 0 0 0-.731 2.733zm3.326-2.758A5.703 5.703 0 0 1 6 12c0-.462.058-.926.17-1.378a.999.999 0 0 0-.47-1.108l-1.123-.65.998-1.729 1.145.662a.997.997 0 0 0 1.188-.142 6.071 6.071 0 0 1 2.384-1.399A1 1 0 0 0 11 5.3V4h2v1.3a1 1 0 0 0 .708.956 6.083 6.083 0 0 1 2.384 1.399.999.999 0 0 0 1.188.142l1.144-.661 1 1.729-1.124.649a1 1 0 0 0-.47 1.108c.112.452.17.916.17 1.378 0 .461-.058.925-.171 1.378a1 1 0 0 0 .471 1.108l1.123.649-.998 1.729-1.145-.661a.996.996 0 0 0-1.188.142 6.071 6.071 0 0 1-2.384 1.399A1 1 0 0 0 13 18.7l.002 1.3H11v-1.3a1 1 0 0 0-.708-.956 6.083 6.083 0 0 1-2.384-1.399.992.992 0 0 0-1.188-.141l-1.144.662-1-1.729 1.124-.651a1 1 0 0 0 .471-1.108z"></path>
    </symbol>
    
    <symbol id="grid">
      <path d="M10 3H4a1 1 0 0 0-1 1v6a1 1 0 0 0 1 1h6a1 1 0 0 0 1-1V4a1 1 0 0 0-1-1zM9 9H5V5h4v4zm5 2h6a1 1 0 0 0 1-1V4a1 1 0 0 0-1-1h-6a1 1 0 0 0-1 1v6a1 1 0 0 0 1 1zm1-6h4v4h-4V5zM3 20a1 1 0 0 0 1 1h6a1 1 0 0 0 1-1v-6a1 1 0 0 0-1-1H4a1 1 0 0 0-1 1v6zm2-5h4v4H5v-4zm8 5a1 1 0 0 0 1 1h6a1 1 0 0 0 1-1v-6a1 1 0 0 0-1-1h-6a1 1 0 0 0-1 1v6zm2-5h4v4h-4v-4z"></path>
    </symbol>
</svg>